<svg xmlns="http://www.w3.org/2000/svg" viewBox="0 0 100 100" width="400" height="400"><rect x="1" y="1" width="98" height="98" rx="20" fill="#DCE8FA"/><polygon points="92.0,30.0 81.1,34.6 85.6,45.6 74.6,41.1 70.0,52.0 65.4,41.1 54.4,45.6 58.9,34.6 48.0,30.0 58.9,25.4 54.4,14.4 65.4,18.9 70.0,8.0 74.6,18.9 85.6,14.4 81.1,25.4" fill="#FFC93C" stroke="#27264A" stroke-width="3.5" stroke-linejoin="round" stroke-linecap="round"/><polygon points="14,60 26,60 40,48 40,86 26,74 14,74" fill="#27264A"/><path d="M48 58Q56 67 48 76" fill="none" stroke="#E04F6B" stroke-width="4.5" stroke-linecap="round"/><path d="M56 52Q70 67 56 82" fill="none" stroke="#E04F6B" stroke-width="4.5" stroke-linecap="round"/></svg>